<svg width="260" height="59" viewBox="0 0 260 59" fill="none" xmlns="http://www.w3.org/2000/svg">
<path d="M20.064 47.576C17.472 47.576 15.056 47.16 12.816 46.328C10.608 45.464 8.688 44.248 7.056 42.68C5.424 41.112 4.144 39.272 3.216 37.16C2.32 35.048 1.872 32.728 1.872 30.2C1.872 27.672 2.32 25.352 3.216 23.24C4.144 21.128 5.424 19.288 7.056 17.72C8.72 16.152 10.656 14.952 12.864 14.12C15.072 13.256 17.488 12.824 20.112 12.824C23.024 12.824 25.648 13.336 27.984 14.36C30.352 15.352 32.336 16.824 33.936 18.776L28.944 23.384C27.792 22.072 26.512 21.096 25.104 20.456C23.696 19.784 22.16 19.448 20.496 19.448C18.928 19.448 17.488 19.704 16.176 20.216C14.864 20.728 13.728 21.464 12.768 22.424C11.808 23.384 11.056 24.52 10.512 25.832C10 27.144 9.744 28.6 9.744 30.2C9.744 31.8 10 33.256 10.512 34.568C11.056 35.88 11.808 37.016 12.768 37.976C13.728 38.936 14.864 39.672 16.176 40.184C17.488 40.696 18.928 40.952 20.496 40.952C22.16 40.952 23.696 40.632 25.104 39.992C26.512 39.32 27.792 38.312 28.944 36.968L33.936 41.576C32.336 43.528 30.352 45.016 27.984 46.04C25.648 47.064 23.008 47.576 20.064 47.576Z" fill="#16B67F"/>
<path d="M50.4671 47.288C47.9071 47.288 45.6351 46.728 43.6511 45.608C41.6671 44.488 40.0991 42.952 38.9471 41C37.7951 39.016 37.2191 36.776 37.2191 34.28C37.2191 31.752 37.7951 29.512 38.9471 27.56C40.0991 25.608 41.6671 24.088 43.6511 23C45.6351 21.88 47.9071 21.32 50.4671 21.32C52.9951 21.32 55.2511 21.88 57.2351 23C59.2511 24.088 60.8191 25.608 61.9391 27.56C63.0911 29.48 63.6671 31.72 63.6671 34.28C63.6671 36.808 63.0911 39.048 61.9391 41C60.8191 42.952 59.2511 44.488 57.2351 45.608C55.2511 46.728 52.9951 47.288 50.4671 47.288ZM50.4671 43.256C52.0991 43.256 53.5551 42.888 54.8351 42.152C56.1471 41.416 57.1711 40.376 57.9071 39.032C58.6431 37.656 59.0111 36.072 59.0111 34.28C59.0111 32.456 58.6431 30.888 57.9071 29.576C57.1711 28.232 56.1471 27.192 54.8351 26.456C53.5551 25.72 52.0991 25.352 50.4671 25.352C48.8351 25.352 47.3791 25.72 46.0991 26.456C44.8191 27.192 43.7951 28.232 43.0271 29.576C42.2591 30.888 41.8751 32.456 41.8751 34.28C41.8751 36.072 42.2591 37.656 43.0271 39.032C43.7951 40.376 44.8191 41.416 46.0991 42.152C47.3791 42.888 48.8351 43.256 50.4671 43.256ZM83.6239 21.32C85.7039 21.32 87.5279 21.72 89.0959 22.52C90.6959 23.32 91.9439 24.536 92.8399 26.168C93.7359 27.8 94.1839 29.864 94.1839 32.36V47H89.5759V32.888C89.5759 30.424 88.9679 28.568 87.7519 27.32C86.5679 26.072 84.8879 25.448 82.7119 25.448C81.0799 25.448 79.6559 25.768 78.4399 26.408C77.2239 27.048 76.2799 27.992 75.6079 29.24C74.9679 30.488 74.6479 32.04 74.6479 33.896V47H70.0399V21.56H74.4559V28.424L73.7359 26.6C74.5679 24.936 75.8479 23.64 77.5759 22.712C79.3039 21.784 81.3199 21.32 83.6239 21.32ZM108.915 47L97.779 21.56H102.579L112.467 44.6H110.163L120.243 21.56H124.755L113.619 47H108.915ZM139.68 47.288C136.96 47.288 134.56 46.728 132.48 45.608C130.432 44.488 128.832 42.952 127.68 41C126.56 39.048 126 36.808 126 34.28C126 31.752 126.544 29.512 127.632 27.56C128.752 25.608 130.272 24.088 132.192 23C134.144 21.88 136.336 21.32 138.768 21.32C141.232 21.32 143.408 21.864 145.296 22.952C147.184 24.04 148.656 25.576 149.712 27.56C150.8 29.512 151.344 31.8 151.344 34.424C151.344 34.616 151.328 34.84 151.296 35.096C151.296 35.352 151.28 35.592 151.248 35.816H129.6V32.504H148.848L146.976 33.656C147.008 32.024 146.672 30.568 145.968 29.288C145.264 28.008 144.288 27.016 143.04 26.312C141.824 25.576 140.4 25.208 138.768 25.208C137.168 25.208 135.744 25.576 134.496 26.312C133.248 27.016 132.272 28.024 131.568 29.336C130.864 30.616 130.512 32.088 130.512 33.752V34.52C130.512 36.216 130.896 37.736 131.664 39.08C132.464 40.392 133.568 41.416 134.976 42.152C136.384 42.888 138 43.256 139.824 43.256C141.328 43.256 142.688 43 143.904 42.488C145.152 41.976 146.24 41.208 147.168 40.184L149.712 43.16C148.56 44.504 147.12 45.528 145.392 46.232C143.696 46.936 141.792 47.288 139.68 47.288ZM157.743 47V21.56H162.159V28.472L161.727 26.744C162.431 24.984 163.615 23.64 165.279 22.712C166.943 21.784 168.991 21.32 171.423 21.32V25.784C171.231 25.752 171.039 25.736 170.847 25.736C170.687 25.736 170.527 25.736 170.367 25.736C167.903 25.736 165.951 26.472 164.511 27.944C163.071 29.416 162.351 31.544 162.351 34.328V47H157.743ZM186.87 47.288C184.31 47.288 182.326 46.6 180.918 45.224C179.51 43.848 178.806 41.88 178.806 39.32V15.992H183.414V39.128C183.414 40.504 183.75 41.56 184.422 42.296C185.126 43.032 186.118 43.4 187.398 43.4C188.838 43.4 190.038 43 190.998 42.2L192.438 45.512C191.734 46.12 190.886 46.568 189.894 46.856C188.934 47.144 187.926 47.288 186.87 47.288ZM174.486 25.352V21.56H190.71V25.352H174.486ZM208.493 47.288C205.773 47.288 203.373 46.728 201.293 45.608C199.245 44.488 197.645 42.952 196.493 41C195.373 39.048 194.813 36.808 194.813 34.28C194.813 31.752 195.357 29.512 196.445 27.56C197.565 25.608 199.085 24.088 201.005 23C202.957 21.88 205.149 21.32 207.581 21.32C210.045 21.32 212.221 21.864 214.109 22.952C215.997 24.04 217.469 25.576 218.525 27.56C219.613 29.512 220.157 31.8 220.157 34.424C220.157 34.616 220.141 34.84 220.109 35.096C220.109 35.352 220.093 35.592 220.061 35.816H198.413V32.504H217.661L215.789 33.656C215.821 32.024 215.485 30.568 214.781 29.288C214.077 28.008 213.101 27.016 211.853 26.312C210.637 25.576 209.213 25.208 207.581 25.208C205.981 25.208 204.557 25.576 203.309 26.312C202.061 27.016 201.085 28.024 200.381 29.336C199.677 30.616 199.325 32.088 199.325 33.752V34.52C199.325 36.216 199.709 37.736 200.477 39.08C201.277 40.392 202.381 41.416 203.789 42.152C205.197 42.888 206.813 43.256 208.637 43.256C210.141 43.256 211.501 43 212.717 42.488C213.965 41.976 215.053 41.208 215.981 40.184L218.525 43.16C217.373 44.504 215.933 45.528 214.205 46.232C212.509 46.936 210.605 47.288 208.493 47.288ZM226.556 47V21.56H230.972V28.472L230.54 26.744C231.244 24.984 232.428 23.64 234.092 22.712C235.756 21.784 237.804 21.32 240.236 21.32V25.784C240.044 25.752 239.852 25.736 239.66 25.736C239.5 25.736 239.34 25.736 239.18 25.736C236.716 25.736 234.764 26.472 233.324 27.944C231.884 29.416 231.164 31.544 231.164 34.328V47H226.556Z" fill="#5A5A5A"/>
<path d="M45.6464 30.6464C45.4512 30.8417 45.4512 31.1583 45.6464 31.3536L48.8284 34.5355C49.0237 34.7308 49.3403 34.7308 49.5355 34.5355C49.7308 34.3403 49.7308 34.0237 49.5355 33.8284L46.7071 31L49.5355 28.1716C49.7308 27.9763 49.7308 27.6597 49.5355 27.4645C49.3403 27.2692 49.0237 27.2692 48.8284 27.4645L45.6464 30.6464ZM54.5556 30.5H46V31.5H54.5556V30.5Z" fill="#5A5A5A"/>
<path d="M54.9091 38.3536C55.1044 38.1583 55.1044 37.8417 54.9091 37.6464L51.7271 34.4645C51.5319 34.2692 51.2153 34.2692 51.02 34.4645C50.8248 34.6597 50.8248 34.9763 51.02 35.1716L53.8484 38L51.02 40.8284C50.8248 41.0237 50.8248 41.3403 51.02 41.5355C51.2153 41.7308 51.5319 41.7308 51.7271 41.5355L54.9091 38.3536ZM54.5556 37.5H46V38.5H54.5556V37.5Z" fill="#5A5A5A"/>
</svg>
